<svg id="Capa_1" data-name="Capa 1" xmlns="http://www.w3.org/2000/svg" xmlns:xlink="http://www.w3.org/1999/xlink" viewBox="0 0 345.96 134.44"><defs><style>.cls-1{fill:url(#Degradado_sin_nombre_3);}.cls-2{fill:#fff;}</style><linearGradient id="Degradado_sin_nombre_3" x1="145.81" y1="158.08" x2="195.1" y2="-6.72" gradientUnits="userSpaceOnUse"><stop offset="0" stop-color="#d9005a"/><stop offset="1" stop-color="#ffb800"/></linearGradient></defs><title>LogoLetraColor</title><rect class="cls-1" width="345.96" height="134.44"/><path class="cls-2" d="M43,84.68a.23.23,0,0,1-.35.19C36.34,81.29,32.63,72,34.46,64.35c1.31-5.44,4.53-9.83,7.88-14.13,1.66-2.12,3.39-4.17,5.06-6.28,4-5.06,7.59-10.31,8-17.39a.23.23,0,0,1,.38-.17c5.06,4.09,8.21,8.86,8.69,15.16.37,4.87-1.23,9.22-3.75,13.29a90.42,90.42,0,0,1-7.12,9.64C48.71,70.47,43.63,76.39,43,84.68Z"/><path class="cls-2" d="M61.09,107.89a.24.24,0,0,1-.35.2c-6.35-3.59-10.06-12.88-8.22-20.53,1.3-5.44,4.52-9.83,7.88-14.13,1.65-2.11,3.39-4.17,5.05-6.28,4-5.06,7.59-10.31,8-17.39a.23.23,0,0,1,.38-.17c5.07,4.1,8.21,8.86,8.69,15.17.38,4.87-1.22,9.21-3.74,13.29a92.74,92.74,0,0,1-7.12,9.63C66.77,93.69,61.68,99.6,61.09,107.89Z"/><path class="cls-2" d="M121.2,47.17a8.33,8.33,0,0,1,3,4.17,10.32,10.32,0,0,1,.22,5.59l-.75,3.41A14,14,0,0,1,121,65.93a15.69,15.69,0,0,1-4.89,4.18,12,12,0,0,1-5.85,1.58h-3.75L102.7,88.88H95.11l9.59-43.29h11.35A8.45,8.45,0,0,1,121.2,47.17Zm-4.48,7.16a2.81,2.81,0,0,0-2.34-1.15h-3.76l-2.4,10.92H112A4.64,4.64,0,0,0,114.81,63a4.58,4.58,0,0,0,1.74-2.69l.75-3.41A3,3,0,0,0,116.72,54.33Z"/><path class="cls-2" d="M152.29,47.08a8.51,8.51,0,0,1,3.29,4.05,9.71,9.71,0,0,1,.32,5.72l-7.12,32h-7.59L145,71.73h-7.51l-3.83,17.15h-7.51l9.59-43.29H147A9.39,9.39,0,0,1,152.29,47.08Zm-4.54,7.08a3,3,0,0,0-2.37-1.07h-3.75l-2.43,11h7.51l1.6-7.25A3,3,0,0,0,147.75,54.16Z"/><path class="cls-2" d="M182.68,67.51A8.61,8.61,0,0,1,184.1,75L181,88.88H173.4L176.51,75a2.82,2.82,0,0,0-.47-2.57c-.53-.69-1.4-.72-2.54-.72h-3.86L165.8,88.88h-7.16l9.59-43.29h11A9.88,9.88,0,0,1,184.67,47a7.9,7.9,0,0,1,3.23,4,9.72,9.72,0,0,1,.28,5.51l-.76,3.41A13.29,13.29,0,0,1,182.68,67.51ZM178.24,63a5.62,5.62,0,0,0,1.59-3.07l.76-3.41a3.18,3.18,0,0,0-.5-2.61,2.79,2.79,0,0,0-2.43-1.15h-3.84l-2.5,11.35h3.84A4.88,4.88,0,0,0,178.24,63Z"/><path class="cls-2" d="M218.81,48.83a9.14,9.14,0,0,1,1.52,8l-7.11,32h-7.59l7.11-32a2.83,2.83,0,0,0-3-3.76H206L198,88.88h-7.16l9.59-43.29h10.92A8.92,8.92,0,0,1,218.81,48.83Z"/><path class="cls-2" d="M245.68,88.88h-22.6l9.59-43.29h22.61l-7.07,5.74a7.92,7.92,0,0,1-5,1.76h-4.7l-2.27,10.32h7.51L242.08,71h-7.5l-2.34,10.33h4.88a5.42,5.42,0,0,1,4.25,2.06Z"/><path class="cls-2" d="M276.32,67.51A8.61,8.61,0,0,1,277.74,75l-3.12,13.86H267L270.15,75a2.51,2.51,0,0,0-.38-2.42,3.16,3.16,0,0,0-2.62-.87h-3.87l-3.84,17.15h-7.16l9.59-43.29h11A9.89,9.89,0,0,1,278.31,47a7.83,7.83,0,0,1,3.22,4,9.55,9.55,0,0,1,.28,5.51l-.75,3.41A13.29,13.29,0,0,1,276.32,67.51ZM271.87,63a5.51,5.51,0,0,0,1.6-3l.75-3.41a3.15,3.15,0,0,0-.49-2.61,2.79,2.79,0,0,0-2.43-1.15h-3.84L265,64.1h3.88A4.82,4.82,0,0,0,271.87,63Z"/><path class="cls-2" d="M304.54,56.51c.21-1,.47-3.53-2.9-3.76-2.33-.15-3.55,1.15-3.8,2.29l-1.34,6.25c-1,4.38,14.05.9,12.06,10.45-.63,3-2.16,9.55-3.13,11.52-1.2,2.44-4.23,5.91-11.19,5.62-4.57-.13-6.58-2.07-7.64-3.57a9.44,9.44,0,0,1-1.1-7.76l.84-3.46h7l-.82,3.83a3.26,3.26,0,0,0,.39,2.66,3.82,3.82,0,0,0,3,1.11,4.44,4.44,0,0,0,3-1A4.32,4.32,0,0,0,300,77.89l.91-4.47c.91-5.09-15.14,0-11.87-12.82,0,0,1.52-6.64,2.48-8.55,1.72-3.43,3.23-4.37,5.19-5.37a13,13,0,0,1,6.47-1.09c6,.33,7.66,3.82,8.26,5.5a9.49,9.49,0,0,1,.2,5.38l-.79,3.87h-7.17Z"/></svg>